<svg width="900" height="256" viewBox="0 0 900 256" fill="none" xmlns="http://www.w3.org/2000/svg">
<path d="M0 91.8117L21.5 98.5117C43 105.112 86 118.512 128.8 108.812C171.7 99.1117 214.3 66.5117 257.2 41.8117C300 17.1117 343 0.511702 385.8 0.011702C428.7 -0.488298 471.3 15.1117 514.2 32.0117C557 48.8117 600 66.8117 642.8 64.1117C685.7 61.5117 728.3 38.1117 771.2 32.0117C814 25.8117 857 36.8117 878.5 42.3117L900 47.8117V255.812H878.5C857 255.812 814 255.812 771.2 255.812C728.3 255.812 685.7 255.812 642.8 255.812C600 255.812 557 255.812 514.2 255.812C471.3 255.812 428.7 255.812 385.8 255.812C343 255.812 300 255.812 257.2 255.812C214.3 255.812 171.7 255.812 128.8 255.812C86 255.812 43 255.812 21.5 255.812H0V91.8117Z" fill="#FBA724"/>
</svg>
